<?xml version="1.0" encoding="UTF-8" standalone="no"?>
<!-- Created with Inkscape (http://www.inkscape.org/) -->

<svg
   xmlns:dc="http://purl.org/dc/elements/1.1/"
   xmlns:cc="http://creativecommons.org/ns#"
   xmlns:rdf="http://www.w3.org/1999/02/22-rdf-syntax-ns#"
   xmlns:svg="http://www.w3.org/2000/svg"
   xmlns="http://www.w3.org/2000/svg"
   xmlns:xlink="http://www.w3.org/1999/xlink"
   xmlns:sodipodi="http://sodipodi.sourceforge.net/DTD/sodipodi-0.dtd"
   xmlns:inkscape="http://www.inkscape.org/namespaces/inkscape"
   width="744.09448819"
   height="1052.3622047"
   id="svg2"
   version="1.1"
   inkscape:version="0.48.5 r10040"
   sodipodi:docname="characters.svg">
  <defs
     id="defs4" />
  <sodipodi:namedview
     id="base"
     pagecolor="#ffffff"
     bordercolor="#666666"
     borderopacity="1.0"
     inkscape:pageopacity="0.0"
     inkscape:pageshadow="2"
     inkscape:zoom="0.5"
     inkscape:cx="396.76509"
     inkscape:cy="308.23573"
     inkscape:document-units="px"
     inkscape:current-layer="layer1"
     showgrid="false"
     inkscape:window-width="1923"
     inkscape:window-height="1238"
     inkscape:window-x="201"
     inkscape:window-y="134"
     inkscape:window-maximized="0" />
  <metadata
     id="metadata7">
    <rdf:RDF>
      <cc:Work
         rdf:about="">
        <dc:format>image/svg+xml</dc:format>
        <dc:type
           rdf:resource="http://purl.org/dc/dcmitype/StillImage" />
        <dc:title></dc:title>
      </cc:Work>
    </rdf:RDF>
  </metadata>
  <g
     inkscape:label="Layer 1"
     inkscape:groupmode="layer"
     id="layer1">
    <image
       y="64.362183"
       x="515.42859"
       id="image6236"
       xlink:href="file:///home/jimmac/meet-jim.jpg"
       height="1222"
       width="942"
       style="fill:#c4bab0;fill-opacity:1" />
    <g
       id="jim-waving"
       inkscape:label="#g9711"
       inkscape:export-xdpi="90"
       inkscape:export-ydpi="90"
       inkscape:export-filename="/home/jimmac/src/git/gnome/gnome-marketing/youtube/builder-fundraiser/assets/jim-hand.png">
      <path
         sodipodi:nodetypes="csssscsccsccsccsc"
         inkscape:connector-curvature="0"
         id="path7019"
         d="m 251.30025,362.36649 c 0,0 -12.30025,-14.50431 -16.55025,-44.50431 -4.25,-30 -2.25,-68 9.75,-72.25 12,-4.25 35.25,-10.75 45.25,-4 10,6.75 29.5,45 27,71 -2.5,26 -9.5,52.25 -9.5,52.25 0,0 10.25,-3 25.25,7.5 15,10.5 17.99264,17.01777 17.99264,17.01777 l -60.62132,-0.64645 c 0,0 8.87868,-30.37132 11.62868,-44.87132 2.75,-14.5 2.75,-21.5 2.75,-21.5 -14.2488,5.3979 -26.95741,11.38818 -53,12.25 0,0 4.14645,16.9467 9.89645,26.9467 5.75,10 9.15381,27.16421 9.15381,27.16421 l -61.54595,-0.47792 c 0,0 1.98223,-6.17893 12.23223,-13.42893 10.25,-7.25 30.31371,-12.44975 30.31371,-12.44975 z"
         style="color:#000000;fill:#000000;fill-opacity:1;fill-rule:nonzero;stroke:none;stroke-width:2;marker:none;visibility:visible;display:inline;overflow:visible;enable-background:new" />
      <path
         sodipodi:nodetypes="csssscc"
         inkscape:connector-curvature="0"
         id="path6247"
         d="m 186.40751,203.58269 c 0,0 -19.66903,-24.59156 -21.50826,-37.61238 -3.40642,-24.11578 -10.18021,-33.52512 2.2785,-47.34523 32.0094,-35.50716 113.45531,-40.445933 145.25465,-42.268133 60.75529,-3.481483 68.28063,38.581483 56.20711,80.694093 -6.27442,21.8852 -28.90172,55.36678 -28.90172,55.36678 -4.28361,-12.43358 -153.33028,-8.83513 -153.33028,-8.83513 z"
         style="color:#000000;fill:#000000;fill-opacity:1;stroke:none;stroke-width:2;marker:none;visibility:visible;display:inline;overflow:visible;enable-background:new" />
      <path
         sodipodi:nodetypes="csccccccccscsccsc"
         inkscape:connector-curvature="0"
         id="path7025"
         d="m 197,311.86218 c 0,0 -13.51215,6.29877 -15.15381,13.73223 -2.05293,9.29573 6.22183,24.58579 6.22183,24.58579 2.47487,3.88909 9.45711,6.28553 15.46751,4.16421 l 17.4896,-8.02512 c 6.04163,-2.79906 2.61029,-12.07658 2.29239,-11.84929 l -1.86684,0.85781 -2.60382,-4.00622 2.35289,2.64719 c 4.78554,-1.01807 8.57497,-3.03756 9.12868,-6.08578 0,0 -12.46752,-20.08516 -13.71752,-19.83516 -1.25,0.25 -11.11091,0.31434 -11.11091,0.31434 0,0 -7.27817,-17.68934 4.22183,-28.18934 11.5,-10.5 34.27817,-20.56066 34.27817,-20.56066 l 0.5,-13.5 c 0,0 -34.52817,10.06066 -44.27817,27.06066 -9.75,17 -3.22183,38.68934 -3.22183,38.68934 z"
         style="color:#000000;fill:#000000;fill-opacity:1;fill-rule:nonzero;stroke:none;stroke-width:2;marker:none;visibility:visible;display:inline;overflow:visible;enable-background:new" />
      <path
         sodipodi:nodetypes="cscccc"
         inkscape:connector-curvature="0"
         id="path6239"
         d="m 178.84602,139.21252 c 0,0 3.75692,41.11166 9.68725,68.29196 11.32534,51.90714 137.49525,54.09321 152.46476,-1.39746 3.66608,-13.45199 21.40353,-73.97198 -6.72132,-88.35122 -28.8177,-5.89008 -149.12945,14.7252 -149.12945,14.7252 z"
         style="color:#000000;fill:#ffffff;fill-opacity:1;stroke:#000000;stroke-width:7.8;stroke-linecap:square;stroke-linejoin:miter;stroke-miterlimit:4;stroke-opacity:1;stroke-dasharray:none;stroke-dashoffset:0;marker:none;visibility:visible;display:inline;overflow:visible;enable-background:new" />
      <path
         d="m 253.29576,207.2433 a 4.9244938,9.975256 0 1 1 -9.84899,0 4.9244938,9.975256 0 1 1 9.84899,0 z"
         sodipodi:ry="9.975256"
         sodipodi:rx="4.9244938"
         sodipodi:cy="207.2433"
         sodipodi:cx="248.37126"
         id="path6241"
         style="color:#000000;fill:#000000;fill-opacity:1;stroke:none;stroke-width:2;marker:none;visibility:visible;display:inline;overflow:visible;enable-background:new"
         sodipodi:type="arc"
         transform="matrix(1.6634436,0,0,1.6659666,-176.96424,-179.75289)" />
      <path
         d="m 284.86302,207.62212 a 4.1668792,9.5964489 0 1 1 -8.33376,0 4.1668792,9.5964489 0 1 1 8.33376,0 z"
         sodipodi:ry="9.5964489"
         sodipodi:rx="4.1668792"
         sodipodi:cy="207.62212"
         sodipodi:cx="280.69614"
         id="path6243"
         style="color:#000000;fill:#000000;fill-opacity:1;stroke:none;stroke-width:2;marker:none;visibility:visible;display:inline;overflow:visible;enable-background:new"
         sodipodi:type="arc"
         transform="matrix(1.6634436,0,0,1.6659666,-176.96424,-179.75289)" />
      <path
         sodipodi:nodetypes="csssccsssc"
         inkscape:connector-curvature="0"
         id="path6245"
         d="m 267.3857,132.33792 c -1.87387,-4.06626 -3.71952,-6.27464 -9.34118,-2.20839 -5.62167,4.06626 0.59638,11.27927 9.65352,10.34088 9.05711,-0.93835 17.30336,-7.38181 18.58115,-12.06592 1.53331,-5.62076 -3.27774,-12.33157 -3.27774,-12.33157 0,0 -19.32585,1.73133 -17.00702,5.29225 7.5748,-0.46446 10.1361,1.2763 9.51146,6.90649 -0.62462,5.63021 -4.0601,9.07087 -9.05714,8.75809 -4.99703,-0.3128 -7.1801,-2.64455 -5.6185,-4.83409 1.56157,-2.18951 6.55545,0.14227 6.55545,0.14227 z"
         style="color:#000000;fill:#000000;fill-opacity:1;stroke:none;stroke-width:2;marker:none;visibility:visible;display:inline;overflow:visible;enable-background:new" />
      <path
         inkscape:connector-curvature="0"
         id="path7017"
         d="m 213.945,196.10945 -3.74275,4.16492 c 0,0 23.70408,10.82878 53.2302,9.16281 29.52613,-1.66596 52.39848,-11.24527 52.39848,-11.24527 l -6.65378,-6.24737 c 0,0 -25.36752,14.16071 -50.73504,13.74422 -25.3675,-0.4165 -44.49711,-9.57931 -44.49711,-9.57931 z"
         style="color:#000000;fill:#000000;fill-opacity:1;fill-rule:nonzero;stroke:none;stroke-width:2;marker:none;visibility:visible;display:inline;overflow:visible;enable-background:new" />
      <path
         transform="matrix(1.6634436,0,0,1.6659666,-175.50873,-181.00237)"
         d="m 249.25,202.29968 a 1.9375,1.9375 0 1 1 -3.875,0 1.9375,1.9375 0 1 1 3.875,0 z"
         sodipodi:ry="1.9375"
         sodipodi:rx="1.9375"
         sodipodi:cy="202.29968"
         sodipodi:cx="247.3125"
         id="path9679"
         style="color:#000000;fill:#ffffff;fill-opacity:1;fill-rule:nonzero;stroke:none;stroke-width:2;marker:none;visibility:visible;display:inline;overflow:visible;enable-background:new"
         sodipodi:type="arc" />
      <path
         sodipodi:type="arc"
         style="color:#000000;fill:#ffffff;fill-opacity:1;fill-rule:nonzero;stroke:none;stroke-width:2;marker:none;visibility:visible;display:inline;overflow:visible;enable-background:new"
         id="path9681"
         sodipodi:cx="247.3125"
         sodipodi:cy="202.29968"
         sodipodi:rx="1.9375"
         sodipodi:ry="1.9375"
         d="m 249.25,202.29968 a 1.9375,1.9375 0 1 1 -3.875,0 1.9375,1.9375 0 1 1 3.875,0 z"
         transform="matrix(1.6634436,0,0,1.6659666,-121.65474,-181.00237)" />
      <rect
         y="134.36218"
         x="147"
         height="272"
         width="272"
         id="rect9697"
         style="color:#000000;fill:none;stroke:none;stroke-width:2;marker:none;visibility:visible;display:inline;overflow:visible;enable-background:new" />
    </g>
    <g
       id="jim-hand"
       inkscape:label="#g9766"
       inkscape:export-xdpi="90"
       inkscape:export-ydpi="90"
       transform="translate(-3,0)">
      <path
         style="color:#000000;fill:#000000;fill-opacity:1;fill-rule:nonzero;stroke:none;stroke-width:2;marker:none;visibility:visible;display:inline;overflow:visible;enable-background:new"
         d="m 296.01041,243.92284 c 0,0 16.98959,29.43934 38.73959,31.18934 21.75,1.75 27.5,-17.5 27.5,-17.5 l 8.75,4.75 c 0,0 -12.75,24.25 -32.75,23 -20,-1.25 -41.75,-24.5 -41.75,-24.5 z"
         id="path7021"
         inkscape:connector-curvature="0"
         sodipodi:nodetypes="csccscc" />
      <path
         style="color:#000000;fill:#000000;fill-opacity:1;fill-rule:nonzero;stroke:none;stroke-width:2;marker:none;visibility:visible;display:inline;overflow:visible;enable-background:new"
         d="m 355.99264,220.94061 c 0,0 -7.22639,0.71985 -9.35355,3.24264 -3.81298,4.52214 -0.75736,15.06066 0.99264,22.81066 1.75,7.75 24.36827,17.36827 24.36827,17.36827 5.125,2.125 9.5,-1.125 12.75,-2.625 3.25,-1.5 7.18045,-14.625 7.18045,-14.625 4.14266,-5.08129 17.65686,-21.15317 17.65686,-21.15317 l -4.59835,-6.27145 c -5.24871,2.25773 -14.28965,14.67962 -20.10508,20.91205 l -0.89124,-0.46967 18.98223,-30.60355 c -3.64509,-2.90811 -7.36778,-6.05429 -11.5,-5 l -13.25,32.25 -2.08579,0.0303 2.61612,-16.42157 6.44975,-14.84835 c -1.24515,-3.36276 -5.60756,-4.03037 -9.65901,-1.78554 l -5.92462,15.80546 -3.90902,17.75 c -2.26866,1.38924 -3.73987,1.61254 -10.63387,1.15165 0.65829,-7.55559 0.25592,-11.73514 0.91421,-17.51773 z"
         id="path7023"
         inkscape:connector-curvature="0"
         sodipodi:nodetypes="csscscccccccccccccccc" />
    </g>
    <g
       inkscape:export-filename="/home/jimmac/src/git/gnome/gnome-marketing/youtube/builder-fundraiser/assets/jim-hand.png"
       inkscape:export-ydpi="90"
       inkscape:export-xdpi="90"
       inkscape:label="#g9711"
       id="jim-pondering"
       transform="translate(0,404)">
      <path
         style="color:#000000;fill:#000000;fill-opacity:1;fill-rule:nonzero;stroke:none;stroke-width:2;marker:none;visibility:visible;display:inline;overflow:visible;enable-background:new"
         d="m 251.30025,362.36649 c 0,0 -12.30025,-14.50431 -16.55025,-44.50431 -4.25,-30 -2.25,-68 9.75,-72.25 12,-4.25 35.25,-10.75 45.25,-4 10,6.75 29.5,45 27,71 -2.5,26 -9.5,52.25 -9.5,52.25 0,0 10.25,-3 25.25,7.5 15,10.5 17.99264,17.01777 17.99264,17.01777 l -60.62132,-0.64645 c 0,0 8.87868,-30.37132 11.62868,-44.87132 2.75,-14.5 2.75,-21.5 2.75,-21.5 -14.2488,5.3979 -26.95741,11.38818 -53,12.25 0,0 4.14645,16.9467 9.89645,26.9467 5.75,10 9.15381,27.16421 9.15381,27.16421 l -61.54595,-0.47792 c 0,0 1.98223,-6.17893 12.23223,-13.42893 10.25,-7.25 30.31371,-12.44975 30.31371,-12.44975 z"
         id="path9772"
         inkscape:connector-curvature="0"
         sodipodi:nodetypes="csssscsccsccsccsc" />
      <path
         style="color:#000000;fill:#000000;fill-opacity:1;stroke:none;stroke-width:2;marker:none;visibility:visible;display:inline;overflow:visible;enable-background:new"
         d="m 186.40751,203.58269 c 0,0 -19.66903,-24.59156 -21.50826,-37.61238 -3.40642,-24.11578 -10.18021,-33.52512 2.2785,-47.34523 32.0094,-35.50716 113.45531,-40.445933 145.25465,-42.268133 60.75529,-3.481483 68.28063,38.581483 56.20711,80.694093 -6.27442,21.8852 -28.90172,55.36678 -28.90172,55.36678 -4.28361,-12.43358 -153.33028,-8.83513 -153.33028,-8.83513 z"
         id="path9774"
         inkscape:connector-curvature="0"
         sodipodi:nodetypes="csssscc" />
      <path
         style="color:#000000;fill:#000000;fill-opacity:1;fill-rule:nonzero;stroke:none;stroke-width:2;marker:none;visibility:visible;display:inline;overflow:visible;enable-background:new"
         d="m 312.01886,311.86218 -2.5,-14.5 c 0,0 22.27817,-8.68934 10.77817,-19.18934 -11.5,-10.5 -28.77817,-18.56066 -28.77817,-18.56066 l -0.5,-13.5 c 0,0 29.02817,8.06066 38.77817,25.06066 9.75,17 0.22183,33.18934 -17.77817,40.68934 z"
         id="path9776"
         inkscape:connector-curvature="0"
         sodipodi:nodetypes="ccsccsc" />
      <path
         style="color:#000000;fill:#ffffff;fill-opacity:1;stroke:#000000;stroke-width:7.80000019;stroke-linecap:square;stroke-linejoin:miter;stroke-miterlimit:4;stroke-opacity:1;stroke-dasharray:none;stroke-dashoffset:0;marker:none;visibility:visible;display:inline;overflow:visible;enable-background:new"
         d="m 178.84602,139.21252 c 0,0 3.75692,41.11166 9.68725,68.29196 11.32534,51.90714 137.49525,54.09321 152.46476,-1.39746 3.66608,-13.45199 21.40353,-73.97198 -6.72132,-88.35122 -28.8177,-5.89008 -149.12945,14.7252 -149.12945,14.7252 z"
         id="path9778"
         inkscape:connector-curvature="0"
         sodipodi:nodetypes="cscccc" />
      <path
         transform="matrix(1.6634436,0,0,1.6659666,-176.96424,-179.75289)"
         sodipodi:type="arc"
         style="color:#000000;fill:#000000;fill-opacity:1;stroke:none;stroke-width:2;marker:none;visibility:visible;display:inline;overflow:visible;enable-background:new"
         id="path9780"
         sodipodi:cx="248.37126"
         sodipodi:cy="207.2433"
         sodipodi:rx="4.9244938"
         sodipodi:ry="9.975256"
         d="m 253.29576,207.2433 a 4.9244938,9.975256 0 1 1 -9.84899,0 4.9244938,9.975256 0 1 1 9.84899,0 z" />
      <path
         transform="matrix(1.6634436,0,0,1.6659666,-176.96424,-179.75289)"
         sodipodi:type="arc"
         style="color:#000000;fill:#000000;fill-opacity:1;stroke:none;stroke-width:2;marker:none;visibility:visible;display:inline;overflow:visible;enable-background:new"
         id="path9782"
         sodipodi:cx="280.69614"
         sodipodi:cy="207.62212"
         sodipodi:rx="4.1668792"
         sodipodi:ry="9.5964489"
         d="m 284.86302,207.62212 a 4.1668792,9.5964489 0 1 1 -8.33376,0 4.1668792,9.5964489 0 1 1 8.33376,0 z" />
      <path
         style="color:#000000;fill:#000000;fill-opacity:1;stroke:none;stroke-width:2;marker:none;visibility:visible;display:inline;overflow:visible;enable-background:new"
         d="m 267.3857,132.33792 c -1.87387,-4.06626 -3.71952,-6.27464 -9.34118,-2.20839 -5.62167,4.06626 0.59638,11.27927 9.65352,10.34088 9.05711,-0.93835 17.30336,-7.38181 18.58115,-12.06592 1.53331,-5.62076 -3.27774,-12.33157 -3.27774,-12.33157 0,0 -19.32585,1.73133 -17.00702,5.29225 7.5748,-0.46446 10.1361,1.2763 9.51146,6.90649 -0.62462,5.63021 -4.0601,9.07087 -9.05714,8.75809 -4.99703,-0.3128 -7.1801,-2.64455 -5.6185,-4.83409 1.56157,-2.18951 6.55545,0.14227 6.55545,0.14227 z"
         id="path9784"
         inkscape:connector-curvature="0"
         sodipodi:nodetypes="csssccsssc" />
      <path
         style="color:#000000;fill:#000000;fill-opacity:1;fill-rule:nonzero;stroke:none;stroke-width:2;marker:none;visibility:visible;display:inline;overflow:visible;enable-background:new"
         d="m 228.79424,212.37291 -0.56077,4.16492 c 0,0 7.44063,-4.72757 36.96675,-6.39354 29.52613,-1.66596 42.14543,-2.75999 42.14543,-2.75999 l -1.70403,-6.60093 c 0,0 -16.17514,3.90767 -39.77489,7.02671 -25.1522,3.32422 -37.07249,4.56283 -37.07249,4.56283 z"
         id="path9786"
         inkscape:connector-curvature="0"
         sodipodi:nodetypes="ccsccsc" />
      <path
         sodipodi:type="arc"
         style="color:#000000;fill:#ffffff;fill-opacity:1;fill-rule:nonzero;stroke:none;stroke-width:2;marker:none;visibility:visible;display:inline;overflow:visible;enable-background:new"
         id="path9788"
         sodipodi:cx="247.3125"
         sodipodi:cy="202.29968"
         sodipodi:rx="1.9375"
         sodipodi:ry="1.9375"
         d="m 249.25,202.29968 a 1.9375,1.9375 0 1 1 -3.875,0 1.9375,1.9375 0 1 1 3.875,0 z"
         transform="matrix(1.6634436,0,0,1.6659666,-175.50873,-181.00237)" />
      <path
         transform="matrix(1.6634436,0,0,1.6659666,-121.65474,-181.00237)"
         d="m 249.25,202.29968 a 1.9375,1.9375 0 1 1 -3.875,0 1.9375,1.9375 0 1 1 3.875,0 z"
         sodipodi:ry="1.9375"
         sodipodi:rx="1.9375"
         sodipodi:cy="202.29968"
         sodipodi:cx="247.3125"
         id="path9790"
         style="color:#000000;fill:#ffffff;fill-opacity:1;fill-rule:nonzero;stroke:none;stroke-width:2;marker:none;visibility:visible;display:inline;overflow:visible;enable-background:new"
         sodipodi:type="arc" />
      <rect
         style="color:#000000;fill:none;stroke:none;stroke-width:2;marker:none;visibility:visible;display:inline;overflow:visible;enable-background:new"
         id="rect9792"
         width="272"
         height="272"
         x="147"
         y="134.36218" />
    </g>
    <path
       style="color:#000000;fill:#000000;fill-opacity:1;stroke:none;stroke-width:7.80000019;marker:none;visibility:visible;display:inline;overflow:visible;enable-background:new"
       d="m 261.81371,621.76167 c 0,0 -5.30988,-8.69262 -9.26777,-7.14644 -5.35884,2.09347 -23.19239,8.32842 -23.19239,8.32842 0,0 -7.85429,5.12298 -7.81002,9.80816 0.0566,5.98803 0.45647,9.53499 0.45647,9.53499 l -29,31 c -1.98905,15.30681 -6.08849,18.96298 5,22.5 0,0 8.83744,-6.25131 16.1452,-14.42391 l 15.98859,-25.17908 c 0,0 17.38761,-8.109 27.61316,-12.04346 5.93166,-2.28231 20.3995,-2.25736 20.3995,-2.25736 L 282.67901,626.97696 280,619.2868 c 0,0 -29.63309,5.34263 -37.4723,7.91106 z"
       id="pondering-hand1"
       inkscape:connector-curvature="0"
       sodipodi:nodetypes="cscscccccsccccc"
       inkscape:label="#path9794"
       inkscape:export-filename="/home/jimmac/src/git/builder-fundraiser/assets/jim-ponderinghand1.png"
       inkscape:export-xdpi="90"
       inkscape:export-ydpi="90" />
    <path
       style="color:#000000;fill:#000000;fill-opacity:1;fill-rule:nonzero;stroke:none;stroke-width:7.80000019;marker:none;visibility:visible;display:inline;overflow:visible;enable-background:new"
       d="m 242,655.36218 -47.5,28.5 c 0,0 -3,16.5 12.5,9 l 33.5,-21.5 z"
       id="pondering-hand2"
       inkscape:connector-curvature="0"
       sodipodi:nodetypes="ccccc"
       inkscape:label="#path9796"
       inkscape:export-xdpi="90"
       inkscape:export-ydpi="90" />
    <g
       inkscape:export-filename="/home/jimmac/src/git/builder-fundraiser/assets/jim-standing.png"
       inkscape:export-ydpi="90"
       inkscape:export-xdpi="90"
       inkscape:label="#g9711"
       id="g9878"
       transform="translate(-555,164)">
      <path
         style="color:#000000;fill:#000000;fill-opacity:1;fill-rule:nonzero;stroke:none;stroke-width:2;marker:none;visibility:visible;display:inline;overflow:visible;enable-background:new"
         d="m 246.6924,360.80652 c 0,0 -10.6924,-22.94434 -14.9424,-52.94434 -4.25,-30 0.75,-58 12.75,-62.25 12,-4.25 35.25,-10.75 45.25,-4 10,6.75 29.5,45 27,71 -2.5,26 -10.5,52.25 -10.5,52.25 0,0 10.25,-3 25.25,7.5 15,10.5 17.99264,17.01777 17.99264,17.01777 l -60.62132,-0.64645 c 0,0 9.87868,-30.37132 12.62868,-44.87132 2.75,-14.5 2.75,-21.5 2.75,-21.5 -14.2488,5.3979 -33.95741,5.38818 -56,2.25 0,0 3.75538,25.93005 8.31611,36.52543 4.56074,10.59539 5.96626,28.03731 5.96626,28.03731 l -61.08187,-7.55895 c 0,0 2.68027,-5.9097 13.69665,-11.93169 11.01638,-6.02199 31.54525,-8.87776 31.54525,-8.87776 z"
         id="path9880"
         inkscape:connector-curvature="0"
         sodipodi:nodetypes="csssscsccsccsccsc" />
      <path
         style="color:#000000;fill:#000000;fill-opacity:1;stroke:none;stroke-width:2;marker:none;visibility:visible;display:inline;overflow:visible;enable-background:new"
         d="m 184.59775,201.04929 c 0,0 -18.89272,-25.19287 -20.32508,-38.2647 -2.65285,-24.21027 -9.12997,-33.82623 3.75358,-47.25117 33.10092,-34.491874 114.66122,-36.888832 146.50191,-37.718669 60.8343,-1.585492 67.0445,40.691659 53.66381,82.407349 -6.95373,21.67893 -30.61396,54.43873 -30.61396,54.43873 -3.89386,-12.56109 -152.98026,-13.61154 -152.98026,-13.61154 z"
         id="path9882"
         inkscape:connector-curvature="0"
         sodipodi:nodetypes="csssscc" />
      <path
         style="color:#000000;fill:#000000;fill-opacity:1;fill-rule:nonzero;stroke:none;stroke-width:2;marker:none;visibility:visible;display:inline;overflow:visible;enable-background:new"
         d="m 197,311.86218 c 0,0 -13.51215,6.29877 -15.15381,13.73223 -2.05293,9.29573 6.22183,24.58579 6.22183,24.58579 2.47487,3.88909 9.45711,6.28553 15.46751,4.16421 l 17.4896,-8.02512 c 6.04163,-2.79906 2.61029,-12.07658 2.29239,-11.84929 l -1.86684,0.85781 -2.60382,-4.00622 2.35289,2.64719 c 4.78554,-1.01807 8.57497,-3.03756 9.12868,-6.08578 0,0 -12.46752,-20.08516 -13.71752,-19.83516 -1.25,0.25 -11.11091,0.31434 -11.11091,0.31434 0,0 -7.27817,-17.68934 4.22183,-28.18934 11.5,-10.5 34.27817,-20.56066 34.27817,-20.56066 l 0.5,-13.5 c 0,0 -34.52817,10.06066 -44.27817,27.06066 -9.75,17 -3.22183,38.68934 -3.22183,38.68934 z"
         id="path9884"
         inkscape:connector-curvature="0"
         sodipodi:nodetypes="csccccccccscsccsc" />
      <path
         style="color:#000000;fill:#ffffff;fill-opacity:1;stroke:#000000;stroke-width:7.80000019;stroke-linecap:square;stroke-linejoin:miter;stroke-miterlimit:4;stroke-opacity:1;stroke-dasharray:none;stroke-dashoffset:0;marker:none;visibility:visible;display:inline;overflow:visible;enable-background:new"
         d="m 181.28749,134.63533 c 0,0 1.52079,41.25495 5.96766,68.71697 8.49232,52.44516 134.35777,61.47363 152.316,6.87691 4.39054,-13.23327 25.38551,-72.70173 -1.91774,-88.58576 -28.45567,-7.44497 -149.70873,6.61217 -149.70873,6.61217 z"
         id="path9886"
         inkscape:connector-curvature="0"
         sodipodi:nodetypes="cscccc" />
      <path
         transform="matrix(1.6634436,0,0,1.6659666,-176.96424,-171.75289)"
         sodipodi:type="arc"
         style="color:#000000;fill:#000000;fill-opacity:1;stroke:none;stroke-width:2;marker:none;visibility:visible;display:inline;overflow:visible;enable-background:new"
         id="path9888"
         sodipodi:cx="248.37126"
         sodipodi:cy="207.2433"
         sodipodi:rx="4.9244938"
         sodipodi:ry="9.975256"
         d="m 253.29576,207.2433 c 0,5.50918 -2.20478,9.97526 -4.9245,9.97526 -2.71972,0 -4.92449,-4.46608 -4.92449,-9.97526 0,-5.50918 2.20477,-9.97525 4.92449,-9.97525 2.71972,0 4.9245,4.46607 4.9245,9.97525 z" />
      <path
         transform="matrix(1.6634436,0,0,1.6659666,-176.96424,-171.75289)"
         sodipodi:type="arc"
         style="color:#000000;fill:#000000;fill-opacity:1;stroke:none;stroke-width:2;marker:none;visibility:visible;display:inline;overflow:visible;enable-background:new"
         id="path9890"
         sodipodi:cx="280.69614"
         sodipodi:cy="207.62212"
         sodipodi:rx="4.1668792"
         sodipodi:ry="9.5964489"
         d="m 284.86302,207.62212 c 0,5.29997 -1.86558,9.59644 -4.16688,9.59644 -2.30131,0 -4.16688,-4.29647 -4.16688,-9.59644 0,-5.29998 1.86557,-9.59645 4.16688,-9.59645 2.3013,0 4.16688,4.29647 4.16688,9.59645 z" />
      <path
         style="color:#000000;fill:#000000;fill-opacity:1;stroke:none;stroke-width:2;marker:none;visibility:visible;display:inline;overflow:visible;enable-background:new"
         d="m 268.89973,133.37105 c -3.09158,-3.23852 -5.5538,-4.72878 -9.55243,0.94118 -3.99863,5.66997 4.22298,10.47588 12.48595,6.65022 8.26295,-3.82561 13.97311,-12.59561 13.66234,-17.44093 -0.3729,-5.8142 -7.10069,-10.60148 -7.10069,-10.60148 0,0 -17.71918,7.90676 -14.37062,10.52292 7.01452,-2.89651 10.002,-2.08073 11.23749,3.44763 1.23553,5.52837 -0.89808,9.8974 -5.72636,11.22251 -4.82828,1.32508 -7.64969,-0.17242 -6.88279,-2.75012 0.76688,-2.57766 6.24711,-1.99192 6.24711,-1.99192 z"
         id="path9892"
         inkscape:connector-curvature="0"
         sodipodi:nodetypes="csssccsssc" />
      <path
         style="color:#000000;fill:#000000;fill-opacity:1;fill-rule:nonzero;stroke:none;stroke-width:2;marker:none;visibility:visible;display:inline;overflow:visible;enable-background:new"
         d="m 213.945,196.10945 -3.74275,4.16492 c 0,0 26.70408,19.82878 56.2302,18.16281 29.52613,-1.66596 49.39848,-20.24527 49.39848,-20.24527 l -6.65378,-6.24737 c 0,0 -22.36752,23.16071 -47.73504,22.74422 -25.3675,-0.4165 -47.49711,-18.57931 -47.49711,-18.57931 z"
         id="path9894"
         inkscape:connector-curvature="0"
         sodipodi:nodetypes="ccsccsc" />
      <path
         sodipodi:type="arc"
         style="color:#000000;fill:#ffffff;fill-opacity:1;fill-rule:nonzero;stroke:none;stroke-width:2;marker:none;visibility:visible;display:inline;overflow:visible;enable-background:new"
         id="path9896"
         sodipodi:cx="247.3125"
         sodipodi:cy="202.29968"
         sodipodi:rx="1.9375"
         sodipodi:ry="1.9375"
         d="m 249.25,202.29968 c 0,1.07005 -0.86745,1.9375 -1.9375,1.9375 -1.07005,0 -1.9375,-0.86745 -1.9375,-1.9375 0,-1.07005 0.86745,-1.9375 1.9375,-1.9375 1.07005,0 1.9375,0.86745 1.9375,1.9375 z"
         transform="matrix(1.6634436,0,0,1.6659666,-175.50873,-173.00237)" />
      <path
         transform="matrix(1.6634436,0,0,1.6659666,-121.65474,-173.00237)"
         d="m 249.25,202.29968 c 0,1.07005 -0.86745,1.9375 -1.9375,1.9375 -1.07005,0 -1.9375,-0.86745 -1.9375,-1.9375 0,-1.07005 0.86745,-1.9375 1.9375,-1.9375 1.07005,0 1.9375,0.86745 1.9375,1.9375 z"
         sodipodi:ry="1.9375"
         sodipodi:rx="1.9375"
         sodipodi:cy="202.29968"
         sodipodi:cx="247.3125"
         id="path9898"
         style="color:#000000;fill:#ffffff;fill-opacity:1;fill-rule:nonzero;stroke:none;stroke-width:2;marker:none;visibility:visible;display:inline;overflow:visible;enable-background:new"
         sodipodi:type="arc" />
      <rect
         style="color:#000000;fill:none;stroke:none;stroke-width:2;marker:none;visibility:visible;display:inline;overflow:visible;enable-background:new"
         id="rect9900"
         width="272"
         height="272"
         x="147"
         y="134.36218" />
      <path
         sodipodi:nodetypes="csccccccccscsccsc"
         inkscape:connector-curvature="0"
         id="path9923"
         d="m 335.55041,304.83138 c 0,0 12.2728,5.72102 13.76386,12.47268 1.86463,8.44308 -5.65113,22.33069 -5.65113,22.33069 -2.24787,3.53239 -8.58966,5.70903 -14.04878,3.78226 l -15.88542,-7.28902 c -5.48744,-2.54231 -2.37085,-10.96888 -2.0821,-10.76244 l 1.69559,0.77915 2.365,-3.63876 -2.13707,2.40439 c -4.34659,-0.92472 -7.78847,-2.75896 -8.29138,-5.52758 0,0 11.32397,-18.24291 12.45932,-18.01582 1.13535,0.22706 10.09176,0.2855 10.09176,0.2855 0,0 6.61062,-16.06684 -3.83458,-25.60374 -10.4452,-9.5369 -31.13407,-18.67476 -31.13407,-18.67476 l -0.45415,-12.26175 c 0,0 31.36117,9.13786 40.21687,24.57856 8.8557,15.44072 2.92628,35.14064 2.92628,35.14064 z"
         style="color:#000000;fill:#000000;fill-opacity:1;fill-rule:nonzero;stroke:none;stroke-width:2;marker:none;visibility:visible;display:inline;overflow:visible;enable-background:new" />
    </g>
    <g
       transform="translate(-555,656)"
       id="g13227"
       inkscape:label="#g9711"
       inkscape:export-xdpi="90"
       inkscape:export-ydpi="90"
       inkscape:export-filename="/home/jimmac/src/git/builder-fundraiser/assets/jim-happy.png">
      <path
         sodipodi:nodetypes="casssccscccccsccsc"
         inkscape:connector-curvature="0"
         id="path13229"
         d="m 206.6924,368.80652 c 0,0 20.57427,-36.99087 26.82537,-57.05525 6.64748,-21.33669 -1.01777,-61.88909 10.98223,-66.13909 12,-4.25 35.25,-10.75 45.25,-4 10,6.75 5.43616,56.26058 27,71 l 23.71199,16.20774 -10.52365,23.23082 c 0,0 19.21559,5.35536 26.95598,21.94862 7.74038,16.59327 4.59832,23.38059 4.59832,23.38059 L 309.31626,366.50945 326.09619,336.21573 304.25,322.36218 c -14.2488,5.3979 -33.95741,5.38818 -56,2.25 0,0 -26.44431,35.45441 -29.68389,46.52543 l -7.03374,24.03731 -50.08187,-5.55895 c 0,0 2.68027,-5.9097 13.69665,-11.93169 11.01638,-6.02199 31.54525,-8.87776 31.54525,-8.87776 z"
         style="color:#000000;fill:#000000;fill-opacity:1;fill-rule:nonzero;stroke:none;stroke-width:2;marker:none;visibility:visible;display:inline;overflow:visible;enable-background:new" />
      <path
         sodipodi:nodetypes="csssscc"
         inkscape:connector-curvature="0"
         id="path13231"
         d="m 184.59775,201.04929 c 0,0 -18.89272,-25.19287 -20.32508,-38.2647 -2.65285,-24.21027 -9.12997,-33.82623 3.75358,-47.25117 33.10092,-34.491874 114.66122,-36.888832 146.50191,-37.718669 60.8343,-1.585492 67.0445,40.691659 53.66381,82.407349 -6.95373,21.67893 -30.61396,54.43873 -30.61396,54.43873 -3.89386,-12.56109 -152.98026,-13.61154 -152.98026,-13.61154 z"
         style="color:#000000;fill:#000000;fill-opacity:1;stroke:none;stroke-width:2;marker:none;visibility:visible;display:inline;overflow:visible;enable-background:new" />
      <path
         sodipodi:nodetypes="csccccccccccccsccccc"
         inkscape:connector-curvature="0"
         id="path13233"
         d="m 397.28308,179.94469 c 0,0 16.31911,6.23854 23.9149,1.55966 9.49873,-5.85107 15.62275,-25.28311 15.62275,-25.28311 1.25587,-5.25419 -2.41975,-13.08555 -9.10595,-16.41534 L 404.00636,129.348 c -7.28214,-2.80353 -9.60087,9.92805 -9.15034,10.01032 l 16.12427,7.50132 -2.49235,10.01588 -13.62366,-4.256 4.55398,15.13425 -7.05837,-16.14721 15.837,4.12282 1.844,-7.55044 c -4.75882,-3.19827 -23.4285,-11.37082 -26.44588,-9.35159 0,0 -6.74192,26.871 -5.5123,27.7194 1.22965,0.84832 9.32374,9.09657 9.32374,9.09657 6.00436,4.80349 -72.31357,72.53317 -99.98255,63.85067 l 6.5409,18.97777 c 38.66634,-9.16923 71.67684,-32.82281 103.31824,-78.52705 z"
         style="color:#000000;fill:#000000;fill-opacity:1;fill-rule:nonzero;stroke:none;stroke-width:2;marker:none;visibility:visible;display:inline;overflow:visible;enable-background:new" />
      <path
         sodipodi:nodetypes="cscccc"
         inkscape:connector-curvature="0"
         id="path13235"
         d="m 181.28749,134.63533 c 0,0 1.52079,41.25495 5.96766,68.71697 8.49232,52.44516 134.35777,61.47363 152.316,6.87691 4.39054,-13.23327 25.38551,-72.70173 -1.91774,-88.58576 -28.45567,-7.44497 -149.70873,6.61217 -149.70873,6.61217 z"
         style="color:#000000;fill:#ffffff;fill-opacity:1;stroke:#000000;stroke-width:7.80000019;stroke-linecap:square;stroke-linejoin:miter;stroke-miterlimit:4;stroke-opacity:1;stroke-dasharray:none;stroke-dashoffset:0;marker:none;visibility:visible;display:inline;overflow:visible;enable-background:new" />
      <path
         d="m 253.29576,207.2433 a 4.9244938,9.975256 0 1 1 -9.84899,0 4.9244938,9.975256 0 1 1 9.84899,0 z"
         sodipodi:ry="9.975256"
         sodipodi:rx="4.9244938"
         sodipodi:cy="207.2433"
         sodipodi:cx="248.37126"
         id="path13237"
         style="color:#000000;fill:#000000;fill-opacity:1;stroke:none;stroke-width:2;marker:none;visibility:visible;display:inline;overflow:visible;enable-background:new"
         sodipodi:type="arc"
         transform="matrix(1.6634436,0,0,1.6659666,-176.96424,-189.75289)" />
      <path
         d="m 284.86302,207.62212 a 4.1668792,9.5964489 0 1 1 -8.33376,0 4.1668792,9.5964489 0 1 1 8.33376,0 z"
         sodipodi:ry="9.5964489"
         sodipodi:rx="4.1668792"
         sodipodi:cy="207.62212"
         sodipodi:cx="280.69614"
         id="path13239"
         style="color:#000000;fill:#000000;fill-opacity:1;stroke:none;stroke-width:2;marker:none;visibility:visible;display:inline;overflow:visible;enable-background:new"
         sodipodi:type="arc"
         transform="matrix(1.6634436,0,0,1.6659666,-176.96424,-189.75289)" />
      <path
         sodipodi:nodetypes="csssccsssc"
         inkscape:connector-curvature="0"
         id="path13241"
         d="m 268.89973,133.37105 c -3.09158,-3.23852 -5.5538,-4.72878 -9.55243,0.94118 -3.99863,5.66997 4.22298,10.47588 12.48595,6.65022 8.26295,-3.82561 13.97311,-12.59561 13.66234,-17.44093 -0.3729,-5.8142 -7.10069,-10.60148 -7.10069,-10.60148 0,0 -17.71918,7.90676 -14.37062,10.52292 7.01452,-2.89651 10.002,-2.08073 11.23749,3.44763 1.23553,5.52837 -0.89808,9.8974 -5.72636,11.22251 -4.82828,1.32508 -7.64969,-0.17242 -6.88279,-2.75012 0.76688,-2.57766 6.24711,-1.99192 6.24711,-1.99192 z"
         style="color:#000000;fill:#000000;fill-opacity:1;stroke:none;stroke-width:2;marker:none;visibility:visible;display:inline;overflow:visible;enable-background:new" />
      <path
         transform="matrix(1.6634436,0,0,1.6659666,-175.50873,-191.00237)"
         d="m 249.25,202.29968 a 1.9375,1.9375 0 1 1 -3.875,0 1.9375,1.9375 0 1 1 3.875,0 z"
         sodipodi:ry="1.9375"
         sodipodi:rx="1.9375"
         sodipodi:cy="202.29968"
         sodipodi:cx="247.3125"
         id="path13245"
         style="color:#000000;fill:#ffffff;fill-opacity:1;fill-rule:nonzero;stroke:none;stroke-width:2;marker:none;visibility:visible;display:inline;overflow:visible;enable-background:new"
         sodipodi:type="arc" />
      <path
         sodipodi:type="arc"
         style="color:#000000;fill:#ffffff;fill-opacity:1;fill-rule:nonzero;stroke:none;stroke-width:2;marker:none;visibility:visible;display:inline;overflow:visible;enable-background:new"
         id="path13247"
         sodipodi:cx="247.3125"
         sodipodi:cy="202.29968"
         sodipodi:rx="1.9375"
         sodipodi:ry="1.9375"
         d="m 249.25,202.29968 a 1.9375,1.9375 0 1 1 -3.875,0 1.9375,1.9375 0 1 1 3.875,0 z"
         transform="matrix(1.6634436,0,0,1.6659666,-121.65474,-191.00237)" />
      <rect
         y="134.36218"
         x="147"
         height="272"
         width="272"
         id="rect13249"
         style="color:#000000;fill:none;stroke:none;stroke-width:2;marker:none;visibility:visible;display:inline;overflow:visible;enable-background:new" />
      <path
         style="color:#000000;fill:#000000;fill-opacity:1;fill-rule:nonzero;stroke:none;stroke-width:2;marker:none;visibility:visible;display:inline;overflow:visible;enable-background:new"
         d="m 136.35401,183.65477 c 0,0 -17.18629,6.57004 -25.1857,1.64253 -10.00349,-6.16199 -16.452933,-26.62662 -16.452933,-26.62662 -1.322606,-5.53339 2.548329,-13.7809 9.589833,-17.28763 l 24.96825,-11.01363 c 7.66911,-2.95249 10.11105,10.45562 9.63658,10.54226 l -16.98109,7.89993 2.62479,10.54812 14.3476,-4.48216 -4.79597,15.93846 7.43345,-17.00525 -16.67856,4.3419 -1.94199,-7.95166 c 5.01169,-3.36823 24.67346,-11.97505 27.85118,-9.84852 0,0 7.10017,28.29889 5.80521,29.19238 -1.29498,0.89339 -9.81918,9.57994 -9.81918,9.57994 8.01511,29.38877 81.93388,67.49928 100.35879,63.54109 l -6.88847,24.30585 c -23.44255,-5.95394 -80.42238,-40.12077 -103.87175,-83.31698 z"
         id="path13253"
         inkscape:connector-curvature="0"
         sodipodi:nodetypes="csccccccccccccsccccc" />
      <path
         style="color:#000000;fill:#000000;fill-opacity:1;fill-rule:nonzero;stroke:none;stroke-width:7.80000019;marker:none;visibility:visible;display:inline;overflow:visible;enable-background:new"
         d="m -343,841.36218 110,0 c 0,0 -12,45 -58,42 -46,-3 -52,-42 -52,-42 z"
         id="path13255"
         inkscape:connector-curvature="0"
         transform="translate(555,-656)"
         sodipodi:nodetypes="ccsc" />
      <path
         sodipodi:nodetypes="ccsc"
         inkscape:connector-curvature="0"
         id="path13257"
         d="m 225.05062,190.36218 83.89876,0 c 0,0 -9.15259,36.45778 -44.23753,34.02726 -35.08494,-2.43051 -39.66123,-34.02726 -39.66123,-34.02726 z"
         style="color:#000000;fill:#ffffff;fill-opacity:1;fill-rule:nonzero;stroke:none;stroke-width:7.80000019;marker:none;visibility:visible;display:inline;overflow:visible;enable-background:new" />
      <path
         style="color:#000000;fill:#000000;fill-opacity:1;fill-rule:nonzero;stroke:none;stroke-width:7.80000019;marker:none;visibility:visible;display:inline;overflow:visible;enable-background:new"
         d="M 261.50604,212.50678 229,210.79592 l 3.45809,5.13252 z"
         id="path13259"
         inkscape:connector-curvature="0" />
      <path
         inkscape:connector-curvature="0"
         id="path13261"
         d="M 275.19278,212.50678 300,210.79592 l -2.63907,5.13252 z"
         style="color:#000000;fill:#000000;fill-opacity:1;fill-rule:nonzero;stroke:none;stroke-width:7.80000019;marker:none;visibility:visible;display:inline;overflow:visible;enable-background:new" />
    </g>
  </g>
</svg>
